<svg xmlns="http://www.w3.org/2000/svg" width="18" height="18" viewBox="0 0 18 18">
  <defs>
    <style>
      .cls-1 {
        fill: none;
      }

      .cls-2 {
        fill: #fff;
      }
    </style>
  </defs>
  <g id="组_1" data-name="组 1" transform="translate(-47 -124)">
    <rect id="矩形_1" data-name="矩形 1" class="cls-1" width="18" height="18" transform="translate(47 124)"/>
    <path id="路径_1" data-name="路径 1" class="cls-2" d="M171.979,171.542h1.183v1.312h-1.183v2.188h11.375v-2.187h-1.133v-1.312h1.133a1.313,1.313,0,0,1,1.313,1.313v10.5a1.313,1.313,0,0,1-1.312,1.313H171.979a1.313,1.313,0,0,1-1.312-1.312v-10.5A1.313,1.313,0,0,1,171.979,171.542Zm11.375,4.813H171.979v7h11.375Zm-7.875,3.938V181.6h-2.188v-1.312Zm3.281,0V181.6h-2.188v-1.312Zm3.281,0V181.6h-2.188v-1.312Zm-6.562-2.625v1.313h-2.188v-1.312Zm3.281,0v1.313h-2.188v-1.312Zm3.281,0v1.313h-2.188v-1.312Zm-.566-7v2.188h-1.313v-2.188h1.313Zm-2.136.875v1.313h-3.294v-1.312Zm-4.04-.875v2.188h-1.312v-2.188Z" transform="translate(-121.667 -44.667)"/>
  </g>
</svg>
