<svg xmlns="http://www.w3.org/2000/svg" width="18" height="18" viewBox="0 0 18 18">
  <defs>
    <style>
      .cls-1 {
        fill: none;
      }

      .cls-2 {
        fill: #fff;
      }
    </style>
  </defs>
  <g id="组_6" data-name="组 6" transform="translate(-47 -124)">
    <rect id="矩形_1" data-name="矩形 1" class="cls-1" width="18" height="18" transform="translate(47 124)"/>
    <path id="路径_8" data-name="路径 8" class="cls-2" d="M157.008,170.877l5.737,3.657a1.273,1.273,0,0,1,.588,1.073v7.81a1.273,1.273,0,0,1-1.273,1.273H150.606a1.273,1.273,0,0,1-1.273-1.273V175.5a1.273,1.273,0,0,1,.6-1.082l5.718-3.547a1.273,1.273,0,0,1,1.355.008Zm-.683,1.073-5.718,3.547v7.921H162.06v-7.811l-5.737-3.657Zm3.615,8.061v1.273h-7.212v-1.273Zm0-2.121v1.273h-7.212V177.89Z" transform="translate(-100.333 -44.36)"/>
  </g>
</svg>
