<svg xmlns="http://www.w3.org/2000/svg" width="18" height="18" viewBox="0 0 18 18">
  <defs>
    <style>
      .cls-1 {
        fill: none;
      }

      .cls-2 {
        fill: #bfcbd9;
      }
    </style>
  </defs>
  <g id="组_7" data-name="组 7" transform="translate(-47 -124)">
    <rect id="矩形_1" data-name="矩形 1" class="cls-1" width="18" height="18" transform="translate(47 124)"/>
    <path id="路径_7" data-name="路径 7" class="cls-2" d="M157.846,166.827l2.349,0a1.324,1.324,0,0,1,1.321,1.322v.383a6.236,6.236,0,0,1,1.284.721l.315-.181a1.324,1.324,0,0,1,1.805.484l1.178,2.033a1.324,1.324,0,0,1-.413,1.766l-.072.044-.316.182a6.146,6.146,0,0,1-.023,1.516l.223.129a1.324,1.324,0,0,1,.521,1.74l-.037.068-1.1,1.91a1.324,1.324,0,0,1-1.74.521l-.069-.037-.3-.176a6.175,6.175,0,0,1-1.233.688v.525a1.324,1.324,0,0,1-1.241,1.323l-.084,0-2.349,0a1.324,1.324,0,0,1-1.321-1.321v-.633a6.258,6.258,0,0,1-1.036-.614l-.563.324a1.324,1.324,0,0,1-1.805-.484l-1.178-2.033a1.324,1.324,0,0,1,.413-1.767l.072-.044.573-.33a6.2,6.2,0,0,1,0-1.266l-.636-.368a1.324,1.324,0,0,1-.522-1.74l.037-.068,1.1-1.91a1.324,1.324,0,0,1,1.74-.521l.068.037.554.32a6.16,6.16,0,0,1,1.167-.717v-.5a1.324,1.324,0,0,1,1.241-1.323l.084,0Zm0,1.324V169.5l-.761.358a4.831,4.831,0,0,0-.916.563l-.7.549-1.294-.747-.033-.018-1.1,1.91,1.377.795-.086.851a4.864,4.864,0,0,0,0,.995l.091.857-1.319.76,1.177,2.033,1.31-.753.695.509a4.926,4.926,0,0,0,.816.484l.76.357,0,1.472,2.349,0v-1.41l.816-.34a4.847,4.847,0,0,0,.968-.54l.694-.5,1.046.6,1.1-1.911-1-.575.124-.883a4.849,4.849,0,0,0,.019-1.191l-.093-.857,1.064-.614-1.178-2.033-1.059.61-.7-.507a4.921,4.921,0,0,0-1.012-.569l-.815-.338,0-1.265Zm2.634,3.8a2.644,2.644,0,1,1-2.008-.265,2.651,2.651,0,0,1,2.008.265Zm-2.468,1.63a1.324,1.324,0,1,0,1.871-.443l-.066-.041-.068-.037A1.32,1.32,0,0,0,158.012,173.58Z" transform="translate(-103.135 -41.172)"/>
  </g>
</svg>
